#!OML:ASF E:/inclinewalkrobotboard/Project1/Captureday1/Session1/subject1.ASF
:FULLY-SPECIFIED
:DEGREES
26
root 0 0 0 -4.292168922388903 -5.220040111044781 -0.01220193241062173
lowerback 10.057013668141025 1.3511519041675626 -0.6006016356337358
upperback -0.08882807682234947 1.7626961137009207 0.6767830572427135
thorax -5.743102958836841 0.8978058588725015 0.8090953556689412
lowerneck -16.569881807975033 -2.616346761789891 -1.5339459635344546
upperneck 22.358960085852807 -3.423440324553175 0.5523878909235296
head 9.96547942413803 -1.6075268119883255 -0.021055202802961803
rclavicle -3.6565804218616895E-15 6.716657452409387E-16
rhumerus -34.050258632720954 -22.2895974860446 -78.49377716688512
rradius 19.604316629481588
rwrist 7.184878546292974
rhand -17.881248891787028 25.87115955765237
rfingers 7.125020000000022
rthumb 8.379581847362891 -3.9168022351394853
lclavicle -3.7907387632357875E-15 -2.0307162406165172E-16
lhumerus -38.379275620902476 8.281712161935666 79.61459441715844
lradius 21.39014994218243
lwrist 2.293341723679749
lhand -26.425385422958147 23.572505879678822
lfingers 7.125020000000021
lthumb 0.12394051369829207 53.54304877101227
rfemur -13.385495357522167 1.688628136092154 26.57434057761017
rtibia 70.83991288183705
rfoot 6.266215131898965 -3.237255795984088
rtoes 15.355978260932222
lfemur -8.658568909029405 -2.9187456342260956 -24.351864460688383
ltibia 21.71770958258147
lfoot -9.931259127684278 -0.815075272869469
ltoes 7.524807277933753
27
root 0 0 0 -4.694302312036017 -4.455243950867428 0.820902355026147
lowerback 11.340316227908088 0.694415004675437 -1.6768517193942956
upperback 0.07579234121141984 0.7668754531918762 0.6636043840757103
thorax -6.3250647064946435 0.4272167005137432 1.5373765673001456
lowerneck -17.350071559419096 -2.6466832106361085 -1.7200147909721082
upperneck 18.70739453717755 -3.3094165333813943 0.2936828517731651
head 8.871209979187523 -1.6276696213615964 -0.03495897844286505
rclavicle -2.9655765346416743E-15 1.1226926784897264E-15
rhumerus -34.23244096256281 -22.60201021463705 -78.47520754742419
rradius 19.30526122448027
rwrist 7.513314455494386
rhand -17.825337229435362 25.85726882824568
rfingers 7.125020000000023
rthumb 8.434283173152913 -3.928665572084512
lclavicle -2.8731559571302994E-15 6.638536667530716E-16
lhumerus -37.415749423821566 7.593581026471708 79.61555147450301
lradius 21.920714042335074
lwrist 2.440074367073099
lhand -26.508052172302964 23.65720037405106
lfingers 7.12502000000002
lthumb 0.04306849119855016 53.626415700416985
rfemur -17.24825323007391 0.8105708503309668 24.947515046473942
rtibia 67.8102029355797
rfoot 1.1672675184260521 -3.8692233848613204
rtoes 12.316154525771532
lfemur 0.6211682877187927 -3.5180958402575464 -27.096304521943157
ltibia 20.5324815391227
lfoot -15.276942066295284 0.3223204212212183
ltoes 1.1091002326420423
28
root 0 0 0 -4.533583775504138 -3.40822281505032 1.3827183930591542
lowerback 11.232541711801243 0.09586777049934492 -2.4550377854389716
upperback 0.1657619219602014 -0.1242237248634781 0.7748450972340479
thorax -6.181223645637395 0.008483091200386705 2.222469879825581
lowerneck -17.74277099599907 -2.556347753792193 -2.031752622175829
upperneck 18.136353092857195 -3.1053299525706763 0.23663778565992444
head 8.698986864350111 -1.5625592643274386 0.025777835874111366
rclavicle -2.5099686823986466E-15 6.527309665500408E-16
rhumerus -34.22477251836192 -22.582805296350287 -78.47376639692803
rradius 19.427996139339264
rwrist 7.485153830374766
rhand -17.860301995822702 25.800551565910425
rfingers 7.125020000000024
rthumb 8.40155820717882 -3.9992564796321517
lclavicle -2.4705200826799713E-15 3.9319628533600183E-16
lhumerus -35.814262361182315 6.145965697863514 79.5696867995073
lradius 23.25814798437207
lwrist 3.0126418839097067
lhand -26.671701866288643 23.96846204891378
lfingers 7.125020000000018
lthumb -0.11639519803521026 53.93388903316955
rfemur -28.084708865844956 -0.28805164846477593 21.5064992203515
rtibia 63.396165718689275
rfoot -4.58372926270744 -6.512066592159428
rtoes 5.899822434585404
lfemur 4.487363582894296 -3.5261786024776725 -28.283316783325382
ltibia 20.26747839470374
lfoot -17.720399577402883 0.801511875517603
ltoes -1.505295042643926
29
root 0 0 0 -3.068151689667839 -1.8402326473682213 2.0812443298965078
lowerback 10.538963724571078 -0.6730538514939436 -3.489264422242692
upperback 0.541911027940784 -1.258616514384862 1.0448219830951568
thorax -5.324280414557749 -0.5259991417070873 3.2439908290744124
lowerneck -16.766161967316968 -2.339543952687668 -2.089595378260093
upperneck 18.791255916858752 -2.7303289057358686 0.16382677884593244
head 8.654170859984196 -1.4054535162532444 0.06114763519153918
rclavicle -1.370686214665486E-15 -4.742632670106122E-16
rhumerus -34.42926757505782 -22.3241235030031 -78.59079846144238
rradius 19.764087137871194
rwrist 7.311486899928661
rhand -17.961443017943274 25.745876003002103
rfingers 7.125020000000024
rthumb 8.302749067388563 -4.073656796939339
lclavicle -1.0603624546694455E-15 -1.0676765191587229E-15
lhumerus -30.87596804453026 1.0139029623796505 79.48983819339264
lradius 28.166173305362562
lwrist 5.584894704896318
lhand -27.388516929964958 25.230801919674565
lfingers 7.125020000000006
lthumb -0.8086955056723646 55.21195560502716
rfemur -34.80841263859385 0.05489322212137804 18.27686833011059
rtibia 51.88909097051953
rfoot -7.106474517732201 -9.283978521367255
rtoes 0.6256843198115769
lfemur 6.1499752450012695 -3.0391629218493525 -28.985394237363757
ltibia 20.15569102509246
lfoot -18.725646173418227 0.8139650320320437
ltoes -1.386950872979888
30
root 0 0 0 -1.9102573472751887 -0.8041546258374728 2.5271025874027946
lowerback 10.468992940256031 -1.0681290383510569 -4.194979914058019
upperback 0.5882182978171473 -1.8396916206057947 1.2543570908053738
thorax -5.164435209685582 -0.7982232342379418 3.9242464874165464
lowerneck -16.742107197446536 -2.3750964542349413 -2.064907139426801
upperneck 19.270998852831337 -2.6914656565986066 -0.14676870472687042
head 8.796193890791045 -1.4234530882166492 -0.050674116373052414
rclavicle -3.160112849204515E-17 -1.1542774316672302E-16
rhumerus -34.63355595136607 -22.38349025137052 -78.39499429148374
rradius 20.173985608845165
rwrist 6.72360843069982
rhand -18.092632133083672 25.400379893245997
rfingers 7.125020000000026
rthumb 8.1770698014534 -4.438648491982498
lclavicle 1.1037657448357424E-17 -8.920503989875796E-16
lhumerus -27.862483757435854 -1.9787465450353612 79.92265470052418
lradius 30.80554530696915
lwrist 7.097040167168654
lhand -27.8044760633611 26.06587675784256
lfingers 7.125020000000001
lthumb -1.2157008719115003 56.07130065560602
rfemur -34.816740277109915 1.7120022092584843 17.72626206342519
rtibia 41.28544649765449
rfoot -7.791096607219048 -10.675522601107271
rtoes -0.8480633704624505
lfemur 6.845814426480302 -2.8736529472384706 -29.007874811647085
ltibia 19.941680298159383
lfoot -18.428539602219647 0.42278163070245567
ltoes -1.6322267850174867
